<svg width="23" height="22" viewBox="0 0 23 22" fill="none" xmlns="http://www.w3.org/2000/svg">
<path d="M0.75 10.4941C0.75 6.62647 0.75 4.69212 1.95205 3.49111C3.1541 2.29009 5.08744 2.28906 8.95513 2.28906H13.0577C16.9254 2.28906 18.8597 2.28906 20.0608 3.49111C21.2618 4.69315 21.2628 6.62647 21.2628 10.4941V12.5454C21.2628 16.4131 21.2628 18.3474 20.0608 19.5484C18.8587 20.7494 16.9254 20.7505 13.0577 20.7505H8.95513C5.08744 20.7505 3.15308 20.7505 1.95205 19.5484C0.751026 18.3464 0.75 16.4131 0.75 12.5454V10.4941Z" stroke="#9D9D9D" stroke-width="1.5"/>
<path opacity="0.5" d="M5.87808 2.28845V0.75M16.1345 2.28845V0.75M1.2627 7.41662H20.7499" stroke="#9D9D9D" stroke-width="1.5" stroke-linecap="round"/>
<path d="M17.1602 15.6223C17.1602 15.8943 17.0522 16.1552 16.8598 16.3475C16.6675 16.5399 16.4066 16.6479 16.1346 16.6479C15.8626 16.6479 15.6017 16.5399 15.4094 16.3475C15.217 16.1552 15.1089 15.8943 15.1089 15.6223C15.1089 15.3503 15.217 15.0894 15.4094 14.8971C15.6017 14.7047 15.8626 14.5967 16.1346 14.5967C16.4066 14.5967 16.6675 14.7047 16.8598 14.8971C17.0522 15.0894 17.1602 15.3503 17.1602 15.6223ZM17.1602 11.5198C17.1602 11.7918 17.0522 12.0527 16.8598 12.245C16.6675 12.4374 16.4066 12.5454 16.1346 12.5454C15.8626 12.5454 15.6017 12.4374 15.4094 12.245C15.217 12.0527 15.1089 11.7918 15.1089 11.5198C15.1089 11.2478 15.217 10.9869 15.4094 10.7945C15.6017 10.6022 15.8626 10.4941 16.1346 10.4941C16.4066 10.4941 16.6675 10.6022 16.8598 10.7945C17.0522 10.9869 17.1602 11.2478 17.1602 11.5198ZM12.032 15.6223C12.032 15.8943 11.924 16.1552 11.7316 16.3475C11.5393 16.5399 11.2784 16.6479 11.0064 16.6479C10.7344 16.6479 10.4735 16.5399 10.2811 16.3475C10.0888 16.1552 9.98074 15.8943 9.98074 15.6223C9.98074 15.3503 10.0888 15.0894 10.2811 14.8971C10.4735 14.7047 10.7344 14.5967 11.0064 14.5967C11.2784 14.5967 11.5393 14.7047 11.7316 14.8971C11.924 15.0894 12.032 15.3503 12.032 15.6223ZM12.032 11.5198C12.032 11.7918 11.924 12.0527 11.7316 12.245C11.5393 12.4374 11.2784 12.5454 11.0064 12.5454C10.7344 12.5454 10.4735 12.4374 10.2811 12.245C10.0888 12.0527 9.98074 11.7918 9.98074 11.5198C9.98074 11.2478 10.0888 10.9869 10.2811 10.7945C10.4735 10.6022 10.7344 10.4941 11.0064 10.4941C11.2784 10.4941 11.5393 10.6022 11.7316 10.7945C11.924 10.9869 12.032 11.2478 12.032 11.5198ZM6.90382 15.6223C6.90382 15.8943 6.79576 16.1552 6.60342 16.3475C6.41107 16.5399 6.1502 16.6479 5.87818 16.6479C5.60616 16.6479 5.34529 16.5399 5.15294 16.3475C4.9606 16.1552 4.85254 15.8943 4.85254 15.6223C4.85254 15.3503 4.9606 15.0894 5.15294 14.8971C5.34529 14.7047 5.60616 14.5967 5.87818 14.5967C6.1502 14.5967 6.41107 14.7047 6.60342 14.8971C6.79576 15.0894 6.90382 15.3503 6.90382 15.6223ZM6.90382 11.5198C6.90382 11.7918 6.79576 12.0527 6.60342 12.245C6.41107 12.4374 6.1502 12.5454 5.87818 12.5454C5.60616 12.5454 5.34529 12.4374 5.15294 12.245C4.9606 12.0527 4.85254 11.7918 4.85254 11.5198C4.85254 11.2478 4.9606 10.9869 5.15294 10.7945C5.34529 10.6022 5.60616 10.4941 5.87818 10.4941C6.1502 10.4941 6.41107 10.6022 6.60342 10.7945C6.79576 10.9869 6.90382 11.2478 6.90382 11.5198Z" fill="#9D9D9D"/>
</svg>
